<?xml version="1.0" encoding="UTF-8" standalone="no"?>
<!-- Created with Inkscape (http://www.inkscape.org/) -->

<svg
   version="1.0"
   width="300"
   height="400"
   viewBox="0 0 521.361 472.969"
   id="Layer_1"
   xml:space="preserve"
   sodipodi:docname="Four_Colour_Map_Example.svg"
   inkscape:version="1.1.1 (3bf5ae0d25, 2021-09-20, custom)"
   xmlns:inkscape="http://www.inkscape.org/namespaces/inkscape"
   xmlns:sodipodi="http://sodipodi.sourceforge.net/DTD/sodipodi-0.dtd"
   xmlns:xlink="http://www.w3.org/1999/xlink"
   xmlns="http://www.w3.org/2000/svg"
   xmlns:svg="http://www.w3.org/2000/svg"><sodipodi:namedview
   id="namedview13510"
   pagecolor="#ffffff"
   bordercolor="#666666"
   borderopacity="1.0"
   inkscape:pageshadow="2"
   inkscape:pageopacity="0.0"
   inkscape:pagecheckerboard="0"
   showgrid="false"
   inkscape:zoom="0.465625"
   inkscape:cx="224.42953"
   inkscape:cy="-516.51007"
   inkscape:window-width="1434"
   inkscape:window-height="1196"
   inkscape:window-x="0"
   inkscape:window-y="1342"
   inkscape:window-maximized="1"
   inkscape:current-layer="Layer_1" /><metadata
   id="metadata2" /><defs
   id="defs2528"><clipPath
   id="XMLID_4_">
		<use
   id="use2442"
   x="0"
   y="0"
   width="521.36102"
   height="472.96899"
   xlink:href="#XMLID_1_" />
	</clipPath>
	<defs
   id="defs2438"><rect
     width="280"
     height="380"
     x="131"
     y="20.933001"
     id="XMLID_1_" /></defs>
	<clipPath
   id="clipPath2539">
		<use
   id="use2541"
   x="0"
   y="0"
   width="521.36102"
   height="472.96899"
   xlink:href="#XMLID_1_" />
	</clipPath>
	
	
	
	
	
</defs>


<g
   clip-path="url(#XMLID_4_)"
   id="XMLID_2_"
   transform="matrix(1.73787,0,0,1.73787,-210.28227,-130.08963)">
		<g
   id="g2445">
			<path
   d="m 220.9,203.763 c 2.18,-1.82 4.4,-3.58 6.68,-5.28 3.99,11.01 9.7,21.2 16.8,30.25 l -24.76,12.2 z"
   style="fill:#009e73;fill-opacity:1"
   id="path2447" />
			<path
   d="m 244.38,228.732 c 2.23,2.851 4.6,5.59 7.1,8.2 -4.66,5.98 -9.8,11.57 -15.35,16.72 -13.88,-7.56 -29.66,-12.08 -46.44,-12.649 8.18,-14.16 18.77,-26.761 31.21,-37.24 l -1.28,37.17 z"
   style="fill:#0072b2;fill-opacity:1"
   id="path2449" />
			<path
   d="m 221.61,149.323 -44.32,-7.24 35.81,33.22 -59.3,21.64 67.2,3.99 -0.1,2.83 c -12.44,10.479 -23.03,23.08 -31.21,37.24 -1.22,-0.051 -2.45,-0.07 -3.69,-0.07 -20.17,0 -39.01,5.68 -55,15.54 V 39.712 l 119.46,46.32 c -15.81,16.97 -26.3,38.95 -28.85,63.291 z"
   style="fill:#d55e00;fill-opacity:1"
   id="path2451" />
			<path
   d="m 227.58,198.482 c -2.28,1.7 -4.5,3.46 -6.68,5.28 l 0.1,-2.83 -67.2,-3.99 59.3,-21.64 -35.81,-33.22 44.32,7.24 c -0.4,3.82 -0.61,7.69 -0.61,11.61 0,13.191 2.32,25.831 6.58,37.55 z"
   style="fill:#0072b2;fill-opacity:1"
   id="path2453" />
			<path
   d="m 386.54,193.033 c 3.94,2.53 7.74,5.26 11.4,8.16 l -77.99,1.53 5.229,38.21 -52.779,-26 -9.32,4.59 c 7.72,-13.71 13.189,-28.85 15.92,-44.92 10.28,-2.4 20.99,-3.67 32,-3.67 7.94,0 15.73,0.66 23.32,1.94 l -2.62,2.43 54.819,17.72 c 0.011,0.01 0.011,0.01 0.021,0.01 z"
   style="fill:#009e73;fill-opacity:1"
   id="path2455" />
			<path
   d="m 411,200.933 v 12.01 c -4.1,-4.18 -8.47,-8.11 -13.06,-11.75 z"
   style="fill:#d55e00;fill-opacity:1"
   id="path2457" />
			<path
   d="m 278.85,126.383 c -2.06,-11.68 -5.58,-22.87 -10.35,-33.36 l 142.5,55.26 v 52.65 l -24.46,-7.9 c -0.01,0 -0.01,0 -0.021,-0.01 -15.569,-9.99 -33.239,-16.98 -52.199,-20.15 l 33.189,-30.79 -68.72,11.22 z"
   style="fill:#d55e00;fill-opacity:1"
   id="path2459" />
			<path
   d="m 325.18,240.933 -5.229,-38.21 77.99,-1.53 c 4.59,3.64 8.96,7.57 13.06,11.75 v 23.471 c -20.04,21.25 -48.47,34.52 -80,34.52 -31.27,0 -59.49,-13.05 -79.52,-34 4.28,-5.49 8.16,-11.31 11.6,-17.41 l 9.32,-4.59 z"
   style="fill:#0072b2;fill-opacity:1"
   id="path2461" />
			<path
   d="m 331.7,175.303 2.62,-2.43 c 18.96,3.17 36.63,10.16 52.199,20.15 z"
   style="fill:#f0e442;fill-opacity:1"
   id="path2463" />
			<path
   d="m 411,200.933 -13.06,0.26 c -3.66,-2.9 -7.46,-5.63 -11.4,-8.16 z"
   style="fill:#0072b2;fill-opacity:1"
   id="path2465" />
			<path
   d="m 291,345.933 c 0,20.17 -5.68,39.01 -15.54,55 h -71.71 c -12.37,-14.73 -21.76,-32.03 -27.25,-51 3.06,0.65 6.24,1 9.5,1 24.85,0 45,-20.15 45,-45 0,-14.36 -6.73,-27.15 -17.21,-35.39 8.01,-4.88 15.49,-10.551 22.34,-16.891 32.69,17.79 54.87,52.441 54.87,92.281 z"
   style="fill:#0072b2;fill-opacity:1"
   id="path2467" />
			<path
   d="m 173,287.263 c -1.32,7.7 -2,15.6 -2,23.67 0,13.53 1.92,26.62 5.5,39 -20.29,-4.37 -35.5,-22.41 -35.5,-44 0,-5.27 0.91,-10.33 2.58,-15.03 10.1,-0.18 19.95,-1.43 29.42,-3.64 z"
   style="fill:#009e73;fill-opacity:1"
   id="path2469" />
			<path
   d="M 203.75,400.933 H 131 v -110.35 c 3.3,0.229 6.64,0.35 10,0.35 0.86,0 1.72,-0.01 2.58,-0.03 -1.67,4.7 -2.58,9.761 -2.58,15.03 0,21.59 15.21,39.63 35.5,44 5.49,18.969 14.88,36.269 27.25,51 z"
   style="fill:#f0e442;fill-opacity:1"
   id="path2471" />
			<path
   d="m 180.04,261.322 c -3.14,8.301 -5.52,16.971 -7.04,25.94 -9.47,2.21 -19.32,3.46 -29.42,3.64 5.54,-15.66 19.51,-27.33 36.46,-29.58 z"
   style="fill:#f0e442;fill-opacity:1"
   id="path2473" />
			<path
   d="m 411,85.453 v 62.83 L 268.5,93.023 c -2.52,-5.55 -5.4,-10.9 -8.59,-16.03 19.17,-16.26 43.979,-26.06 71.09,-26.06 31.53,0 59.96,13.27 80,34.52 z"
   style="fill:#f0e442;fill-opacity:1"
   id="path2475" />
			<path
   d="m 259.91,76.993 c -3.33,2.82 -6.5,5.84 -9.45,9.04 L 131,39.712 v -18.78 h 62.06 c 27.79,11.141 51.19,30.941 66.85,56.061 z"
   style="fill:#f0e442;fill-opacity:1"
   id="path2477" />
			<path
   d="m 186,260.933 c 10.48,0 20.14,3.59 27.79,9.61 -12.45,7.6 -26.18,13.3 -40.79,16.72 1.52,-8.97 3.9,-17.64 7.04,-25.94 1.95,-0.26 3.94,-0.39 5.96,-0.39 z"
   style="fill:#0072b2;fill-opacity:1"
   id="path2479" />
			<path
   d="m 411,236.413 v 164.52 H 275.46 c 9.86,-15.99 15.54,-34.83 15.54,-55 0,-39.84 -22.18,-74.49 -54.87,-92.28 5.55,-5.149 10.69,-10.739 15.35,-16.72 20.03,20.95 48.25,34 79.52,34 31.53,0 59.96,-13.27 80,-34.52 z"
   style="fill:#009e73;fill-opacity:1"
   id="path2481" />
			<path
   d="m 411,20.933 v 64.52 c -20.04,-21.25 -48.47,-34.52 -80,-34.52 -27.11,0 -51.92,9.8 -71.09,26.06 -15.66,-25.12 -39.06,-44.92 -66.85,-56.06 z"
   style="fill:#0072b2;fill-opacity:1"
   id="path2483" />
			<path
   d="m 367.51,142.083 -33.189,30.79 c -7.59,-1.28 -15.38,-1.94 -23.32,-1.94 -11.01,0 -21.72,1.27 -32,3.67 1.32,-7.7 2,-15.6 2,-23.67 0,-8.38 -0.74,-16.58 -2.15,-24.55 l 19.94,26.92 z"
   style="fill:#0072b2;fill-opacity:1"
   id="path2485" />
			<path
   d="m 278.85,126.383 c 1.41,7.97 2.15,16.17 2.15,24.55 0,8.07 -0.68,15.97 -2,23.67 -18.9,4.42 -36.33,12.67 -51.42,23.88 -4.26,-11.72 -6.58,-24.36 -6.58,-37.55 0,-3.92 0.21,-7.79 0.61,-11.61 l 24.4,3.98 26.391,-35.63 z"
   style="fill:#009e73;fill-opacity:1"
   id="path2487" />
			<path
   d="m 278.85,126.383 -6.449,-8.71 -26.391,35.63 -24.4,-3.98 c 2.55,-24.34 13.04,-46.32 28.85,-63.29 l 18.04,6.99 c 4.77,10.49 8.29,21.68 10.35,33.36 z"
   style="fill:#0072b2;fill-opacity:1"
   id="path2489" />
			<path
   d="m 279,174.603 c -2.73,16.07 -8.2,31.21 -15.92,44.92 l -18.7,9.21 c -7.1,-9.05 -12.81,-19.24 -16.8,-30.25 15.09,-11.211 32.52,-19.461 51.42,-23.88 z"
   style="fill:#0072b2;fill-opacity:1"
   id="path2491" />
			<path
   d="m 213.79,270.543 c 10.48,8.239 17.21,21.029 17.21,35.39 0,24.85 -20.15,45 -45,45 -3.26,0 -6.44,-0.35 -9.5,-1 -3.58,-12.38 -5.5,-25.47 -5.5,-39 0,-8.07 0.68,-15.97 2,-23.67 14.61,-3.42 28.34,-9.12 40.79,-16.72 z"
   style="fill:#d55e00;fill-opacity:1"
   id="path2493" />
			<path
   d="m 236.13,253.652 c -6.85,6.34 -14.33,12.011 -22.34,16.891 -7.65,-6.021 -17.31,-9.61 -27.79,-9.61 -2.02,0 -4.01,0.13 -5.96,0.39 2.68,-7.06 5.91,-13.85 9.65,-20.319 16.78,0.568 32.56,5.089 46.44,12.648 z"
   style="fill:#d55e00;fill-opacity:1"
   id="path2495" />
			<path
   d="m 186,240.933 c 1.24,0 2.47,0.02 3.69,0.07 -3.74,6.47 -6.97,13.26 -9.65,20.319 -16.95,2.25 -30.92,13.92 -36.46,29.58 -0.86,0.021 -1.72,0.03 -2.58,0.03 -3.36,0 -6.7,-0.12 -10,-0.35 v -34.11 c 15.99,-9.86 34.83,-15.539 55,-15.539 z"
   style="fill:#0072b2;fill-opacity:1"
   id="path2497" />
		</g>
		<g
   id="g2499">
			<polygon
   points="275.46,400.933 203.75,400.933 131,400.933 131,290.583 131,256.473 131,39.712 131,20.933 193.06,20.933 411,20.933 411,85.453 411,148.283 411,200.933 411,212.942 411,236.413 411,400.933 "
   style="fill:none;stroke:#000000;stroke-width:2"
   id="polygon2501" />
			<path
   d="m 278.85,126.383 c 1.41,7.97 2.15,16.17 2.15,24.55 0,8.07 -0.68,15.97 -2,23.67 -2.73,16.07 -8.2,31.21 -15.92,44.92 -3.44,6.101 -7.32,11.92 -11.6,17.41 -4.66,5.98 -9.8,11.57 -15.35,16.72 -6.85,6.34 -14.33,12.011 -22.34,16.891 -12.45,7.6 -26.18,13.3 -40.79,16.72 -9.47,2.21 -19.32,3.46 -29.42,3.64 -0.86,0.021 -1.72,0.03 -2.58,0.03 -3.36,0 -6.7,-0.12 -10,-0.35 -10.54,-0.75 -20.75,-2.65 -30.51,-5.601 C 42.92,267.603 1,214.163 1,150.933 1,93.193 35.96,43.613 85.86,22.203 c 16.92,-7.25 35.56,-11.27 55.14,-11.27 18.4,0 35.97,3.55 52.06,10 27.79,11.14 51.19,30.94 66.85,56.06 3.19,5.13 6.07,10.48 8.59,16.03 4.77,10.49 8.29,21.68 10.35,33.36 z"
   style="fill:none;stroke:#000000;stroke-width:2"
   id="path2503" />
			<path
   d="m 221.61,149.323 c -0.4,3.82 -0.61,7.69 -0.61,11.61 0,13.19 2.32,25.83 6.58,37.55 3.99,11.01 9.7,21.2 16.8,30.25 2.23,2.851 4.6,5.59 7.1,8.2 20.03,20.95 48.25,34 79.52,34 31.53,0 59.96,-13.27 80,-34.52 3.61,-3.801 6.93,-7.86 9.95,-12.15 12.63,-17.9 20.05,-39.75 20.05,-63.33 0,-0.34 0,-0.69 -0.01,-1.03 -0.26,-28.82 -11.601,-54.99 -29.99,-74.45 -20.04,-21.25 -48.47,-34.52 -80,-34.52 -27.11,0 -51.92,9.8 -71.09,26.06 -3.33,2.82 -6.5,5.84 -9.45,9.04 -15.81,16.969 -26.3,38.949 -28.85,63.29 z"
   style="fill:none;stroke:#000000;stroke-width:2"
   id="path2505" />
			<path
   d="m 386.52,193.022 c -15.569,-9.99 -33.239,-16.98 -52.199,-20.15 -7.59,-1.28 -15.38,-1.94 -23.32,-1.94 -11.01,0 -21.72,1.27 -32,3.67 -18.9,4.42 -36.33,12.67 -51.42,23.88 -2.28,1.7 -4.5,3.46 -6.68,5.28 -12.44,10.479 -23.03,23.08 -31.21,37.24 -3.74,6.47 -6.97,13.26 -9.65,20.319 -3.14,8.301 -5.52,16.971 -7.04,25.94 -1.32,7.7 -2,15.6 -2,23.67 0,13.53 1.92,26.62 5.5,39 5.49,18.97 14.88,36.27 27.25,51 11.12,13.23 24.64,24.38 39.9,32.76 19.98,10.99 42.94,17.24 67.35,17.24 77.32,0 140,-62.68 140,-140 0,-32.73 -11.23,-62.83 -30.05,-86.67 -3.11,-3.95 -6.431,-7.73 -9.95,-11.32 -4.1,-4.18 -8.47,-8.11 -13.06,-11.75 -3.66,-2.9 -7.46,-5.63 -11.4,-8.16"
   style="fill:none;stroke:#000000;stroke-width:2"
   id="path2507" />
			<path
   d="m 275.46,400.933 c 9.86,-15.99 15.54,-34.83 15.54,-55 0,-39.84 -22.18,-74.49 -54.87,-92.28 -13.88,-7.56 -29.66,-12.08 -46.44,-12.649 -1.22,-0.051 -2.45,-0.07 -3.69,-0.07 -20.17,0 -39.01,5.68 -55,15.54 -11.98,7.38 -22.36,17.09 -30.51,28.51 C 88.22,302.173 81,323.202 81,345.933 c 0,57.99 47.01,105 105,105 21.3,0 41.11,-6.34 57.65,-17.24 12.85,-8.451 23.73,-19.65 31.81,-32.76 z"
   style="fill:none;stroke:#000000;stroke-width:2"
   id="path2509" />
			<path
   d="m 176.5,349.933 c -20.29,-4.37 -35.5,-22.41 -35.5,-44 0,-5.27 0.91,-10.33 2.58,-15.03 5.54,-15.66 19.51,-27.33 36.46,-29.58 1.95,-0.26 3.94,-0.39 5.96,-0.39 10.48,0 20.14,3.59 27.79,9.61 10.48,8.239 17.21,21.029 17.21,35.39 0,24.85 -20.15,45 -45,45 -3.26,0 -6.44,-0.35 -9.5,-1 z"
   style="fill:none;stroke:#000000;stroke-width:2"
   id="path2511" />
			<path
   d="m 221.61,149.323 24.4,3.98 26.391,-35.63 6.449,8.71 19.94,26.92 68.72,-11.22 -33.189,30.79 -2.62,2.43 54.819,17.72 c 0.011,0.01 0.011,0.01 0.021,0.01 l 24.46,7.9 -13.06,0.26 -77.99,1.53 5.229,38.21 -52.779,-26 -9.32,4.59 -18.7,9.21 -24.76,12.2 1.28,-37.17 0.1,-2.83 -67.2,-3.99 59.3,-21.64 -35.81,-33.22 z"
   style="fill:none;stroke:#000000;stroke-width:2"
   id="path2513" />
			<polyline
   points="31,0.933 85.86,22.203 131,39.712 250.46,86.033 268.5,93.022      411,148.283 440.99,159.903 521,190.933    "
   id="polyline2515"
   style="fill:none;stroke:#000000;stroke-width:2" />
		</g>
	</g><polygon
   points="168.68,228.845 181,210.185 203.32,211.524 213.32,231.524 201,250.185 178.68,248.845 "
   style="fill:#f0e442;fill-opacity:1;stroke:#000000;stroke-width:2"
   clip-path="url(#XMLID_4_)"
   id="polygon2517"
   transform="matrix(1.73787,0,0,1.73787,-210.28227,-130.08963)" /><path
   d="m 351,308.185 c 0,6.627 -5.373,12 -12,12 h -86 c -6.627,0 -12,-5.373 -12,-12 v -96 c 0,-6.627 5.373,-12 12,-12 h 86 c 6.627,0 12,5.373 12,12 z"
   style="fill:#d55e00;fill-opacity:1;stroke:#000000;stroke-width:2"
   clip-path="url(#XMLID_4_)"
   id="path2519"
   transform="matrix(1.73787,0,0,1.73787,-210.28227,-130.08963)" /><polygon
   points="471,317.172 427.963,377.67 453.401,447.421 382.564,425.185 324.089,470.933 323.347,396.691 261.768,355.214 332.146,331.566 352.564,260.185 396.803,319.811 "
   style="fill:#f0e442;fill-opacity:1;stroke:#000000;stroke-width:2"
   clip-path="url(#XMLID_4_)"
   id="polygon2521"
   transform="matrix(1.73787,0,0,1.73787,-210.28227,-130.08963)" /><polygon
   points="271,60.933 331,60.933 331,80.933 271,80.933 271,110.933 251,110.933 251,80.933 201,80.933 201,60.933 251,60.933 251,30.933 271,30.933 "
   style="fill:#009e73;fill-opacity:1;stroke:#000000;stroke-width:2"
   clip-path="url(#XMLID_4_)"
   id="polygon2523"
   transform="matrix(1.73787,0,0,1.73787,-210.28227,-130.08963)" /><rect
   width="486.60361"
   height="660.39062"
   x="17.378696"
   y="-93.710815"
   style="fill:none;stroke:#000000;stroke-width:5.21361;stroke-linecap:round"
   id="rect2525" /></svg>
